<svg xmlns="http://www.w3.org/2000/svg" width="100%" height="300px" viewBox="0 0 1920 200">
    <!-- Background Rectangle -->
    <rect width="100%" height="100%" fill="#030712" rx="20" />

    <!-- Icons Container -->
    <g transform="translate(930, 50)">
        <!-- First Icon -->
        <g transform="translate(-360, 0)">
            <svg xmlns="http://www.w3.org/2000/svg" width="100px" height="100px" viewBox="0 0 24 24">
                <path fill="#f4f4f5"
                    d="M17.664 17.65L10.26 8H8v8h2v-5.054l6.087 7.933a8 8 0 1 1 1.578-1.23M12 22c5.523 0 10-4.477 10-10S17.523 2 12 2S2 6.477 2 12s4.477 10 10 10m2-10V8h2v4z" />
            </svg>
        </g>

        <!-- Second Icon -->
        <g transform="translate(-240, 0)">
            <svg xmlns="http://www.w3.org/2000/svg" width="100px" height="100px" viewBox="0 0 32 32">
                <path fill="#f4f4f5"
                    d="M14.859 0h5.234v24.219c-2.682.51-4.656.714-6.797.714c-6.385 0-9.714-2.885-9.714-8.427c0-5.333 3.531-8.797 9-8.797c.849 0 1.495.068 2.276.271zm0 12.193a5.2 5.2 0 0 0-1.766-.276c-2.651 0-4.177 1.63-4.177 4.49c0 2.786 1.458 4.313 4.146 4.313c.578 0 1.052-.031 1.797-.135v-8.396zm13.558-4.115v12.13c0 4.177-.302 6.188-1.219 7.917c-.849 1.667-1.974 2.719-4.281 3.875l-4.859-2.313c2.307-1.089 3.432-2.036 4.146-3.5c.745-1.495.984-3.229.984-7.781V8.078zM23.188.026h5.229v5.37h-5.229z" />
            </svg>
        </g>

        <!-- Third Icon -->
        <g transform="translate(-120, 0)">
            <svg xmlns="http://www.w3.org/2000/svg" width="100px" height="100px" viewBox="0 0 24 24">
                <path fill="#f4f4f5"
                    d="M12 10.11c1.03 0 1.87.84 1.87 1.89c0 1-.84 1.85-1.87 1.85S10.13 13 10.13 12c0-1.05.84-1.89 1.87-1.89M7.37 20c.63.38 2.01-.2 3.6-1.7c-.52-.59-1.03-1.23-1.51-1.9a23 23 0 0 1-2.4-.36c-.51 2.14-.32 3.61.31 3.96m.71-5.74l-.29-.51c-.11.29-.22.58-.29.86c.27.06.57.11.88.16zm6.54-.76l.81-1.5l-.81-1.5c-.3-.53-.62-1-.91-1.47C13.17 9 12.6 9 12 9s-1.17 0-1.71.03c-.29.47-.61.94-.91 1.47L8.57 12l.81 1.5c.3.53.62 1 .91 1.47c.54.03 1.11.03 1.71.03s1.17 0 1.71-.03c.29-.47.61-.94.91-1.47M12 6.78c-.19.22-.39.45-.59.72h1.18c-.2-.27-.4-.5-.59-.72m0 10.44c.19-.22.39-.45.59-.72h-1.18c.2.27.4.5.59.72M16.62 4c-.62-.38-2 .2-3.59 1.7c.52.59 1.03 1.23 1.51 1.9c.82.08 1.63.2 2.4.36c.51-2.14.32-3.61-.32-3.96m-.7 5.74l.29.51c.11-.29.22-.58.29-.86c-.27-.06-.57-.11-.88-.16zm1.45-7.05c1.47.84 1.63 3.05 1.01 5.63c2.54.75 4.37 1.99 4.37 3.68s-1.83 2.93-4.37 3.68c.62 2.58.46 4.79-1.01 5.63c-1.46.84-3.45-.12-5.37-1.95c-1.92 1.83-3.91 2.79-5.38 1.95c-1.46-.84-1.62-3.05-1-5.63c-2.54-.75-4.37-1.99-4.37-3.68s1.83-2.93 4.37-3.68c-.62-2.58-.46-4.79 1-5.63c1.47-.84 3.46.12 5.38 1.95c1.92-1.83 3.91-2.79 5.37-1.95M17.08 12c.34.75.64 1.5.89 2.26c2.1-.63 3.28-1.53 3.28-2.26s-1.18-1.63-3.28-2.26c-.25.76-.55 1.51-.89 2.26M6.92 12c-.34-.75-.64-1.5-.89-2.26c-2.1.63-3.28 1.53-3.28 2.26s1.18 1.63 3.28 2.26c.25-.76.55-1.51.89-2.26zm9 2.26l-.3.51c.31-.05.61-.1.88-.16c-.07-.28-.18-.57-.29-.86zm-2.89 4.04c1.59 1.5 2.97 2.08 3.59 1.7c.64-.35.83-1.82.32-3.96c-.77.16-1.58.28-2.4.36c-.48.67-.99 1.31-1.51 1.9M8.08 9.74l.3-.51c-.31.05-.61.1-.88.16c.07.28.18.57.29.86zm2.89-4.04C9.38 4.2 8 3.62 7.37 4c-.63.35-.82 1.82-.31 3.96a23 23 0 0 1 2.4-.36c.48-.67.99-1.31 1.51-1.9z" />
            </svg>
        </g>

        <!-- Fourth Icon -->
        <g transform="translate(0, 0)">
            <svg xmlns="http://www.w3.org/2000/svg" width="100px" height="100px" viewBox="0 0 512 512">
                <path fill="currentColor"
                    d="m508.52 249.75l-21.82-13.51c-.17-2-.34-3.93-.55-5.88l18.72-17.5a7.35 7.35 0 0 0-2.44-12.25l-24-9c-.54-1.88-1.08-3.78-1.67-5.64l15-20.83a7.35 7.35 0 0 0-4.79-11.54l-25.42-4.15c-.9-1.73-1.79-3.45-2.73-5.15l10.68-23.42a7.35 7.35 0 0 0-6.95-10.39l-25.82.91q-1.79-2.22-3.61-4.4L439 81.84a7.36 7.36 0 0 0-8.84-8.84L405 78.93q-2.17-1.83-4.4-3.61l.91-25.82a7.35 7.35 0 0 0-10.39-7L367.7 53.23c-1.7-.94-3.43-1.84-5.15-2.73l-4.15-25.42a7.35 7.35 0 0 0-11.54-4.79L326 35.26c-1.86-.59-3.75-1.13-5.64-1.67l-9-24a7.35 7.35 0 0 0-12.25-2.44l-17.5 18.72c-1.95-.21-3.91-.38-5.88-.55L262.25 3.48a7.35 7.35 0 0 0-12.5 0L236.24 25.3c-2 .17-3.93.34-5.88.55l-17.5-18.72a7.35 7.35 0 0 0-12.25 2.44l-9 24c-1.89.55-3.79 1.08-5.66 1.68l-20.82-15a7.35 7.35 0 0 0-11.54 4.79l-4.15 25.41c-1.73.9-3.45 1.79-5.16 2.73l-23.4-10.63a7.35 7.35 0 0 0-10.39 7l.92 25.81c-1.49 1.19-3 2.39-4.42 3.61L81.84 73A7.36 7.36 0 0 0 73 81.84L78.93 107c-1.23 1.45-2.43 2.93-3.62 4.41l-25.81-.91a7.42 7.42 0 0 0-6.37 3.26a7.35 7.35 0 0 0-.57 7.13l10.66 23.41c-.94 1.7-1.83 3.43-2.73 5.16l-25.41 4.14a7.35 7.35 0 0 0-4.79 11.54l15 20.82c-.59 1.87-1.13 3.77-1.68 5.66l-24 9a7.35 7.35 0 0 0-2.44 12.25l18.72 17.5c-.21 1.95-.38 3.91-.55 5.88l-21.86 13.5a7.35 7.35 0 0 0 0 12.5l21.82 13.51c.17 2 .34 3.92.55 5.87l-18.72 17.5a7.35 7.35 0 0 0 2.44 12.25l24 9c.55 1.89 1.08 3.78 1.68 5.65l-15 20.83a7.35 7.35 0 0 0 4.79 11.54l25.42 4.15c.9 1.72 1.79 3.45 2.73 5.14l-10.63 23.43a7.35 7.35 0 0 0 .57 7.13a7.13 7.13 0 0 0 6.37 3.26l25.83-.91q1.77 2.22 3.6 4.4L73 430.16a7.36 7.36 0 0 0 8.84 8.84l25.16-5.93q2.18 1.83 4.41 3.61l-.92 25.82a7.35 7.35 0 0 0 10.39 6.95l23.43-10.68c1.69.94 3.42 1.83 5.14 2.73l4.15 25.42a7.34 7.34 0 0 0 11.54 4.78l20.83-15c1.86.6 3.76 1.13 5.65 1.68l9 24a7.36 7.36 0 0 0 12.25 2.44l17.5-18.72c1.95.21 3.92.38 5.88.55l13.51 21.82a7.35 7.35 0 0 0 12.5 0l13.51-21.82c2-.17 3.93-.34 5.88-.56l17.5 18.73a7.36 7.36 0 0 0 12.25-2.44l9-24c1.89-.55 3.78-1.08 5.65-1.68l20.82 15a7.34 7.34 0 0 0 11.54-4.78l4.15-25.42c1.72-.9 3.45-1.79 5.15-2.73l23.42 10.68a7.35 7.35 0 0 0 10.39-6.95l-.91-25.82q2.22-1.79 4.4-3.61l25.15 5.93a7.36 7.36 0 0 0 8.84-8.84L433.07 405q1.83-2.17 3.61-4.4l25.82.91a7.23 7.23 0 0 0 6.37-3.26a7.35 7.35 0 0 0 .58-7.13l-10.68-23.42c.94-1.7 1.83-3.43 2.73-5.15l25.42-4.15a7.35 7.35 0 0 0 4.79-11.54l-15-20.83c.59-1.87 1.13-3.76 1.67-5.65l24-9a7.35 7.35 0 0 0 2.44-12.25l-18.72-17.5c.21-1.95.38-3.91.55-5.87l21.82-13.51a7.35 7.35 0 0 0 0-12.5Zm-151 129.08A13.91 13.91 0 0 0 341 389.51l-7.64 35.67a187.51 187.51 0 0 1-156.36-.74l-7.64-35.66a13.87 13.87 0 0 0-16.46-10.68l-31.51 6.76a187 187 0 0 1-16.26-19.21H258.3c1.72 0 2.89-.29 2.89-1.91v-54.19c0-1.57-1.17-1.91-2.89-1.91h-44.83l.05-34.35H262c4.41 0 23.66 1.28 29.79 25.87c1.91 7.55 6.17 32.14 9.06 40c2.89 8.82 14.6 26.46 27.1 26.46H407a187 187 0 0 1-17.34 20.09Zm25.77 34.49A15.24 15.24 0 1 1 368 398.08h.44a15.23 15.23 0 0 1 14.8 15.24Zm-225.62-.68a15.24 15.24 0 1 1-15.25-15.25h.45a15.25 15.25 0 0 1 14.75 15.25Zm-88.1-178.49l32.83-14.6a13.88 13.88 0 0 0 7.06-18.33L102.69 186h26.56v119.73h-53.6a187.7 187.7 0 0 1-6.08-71.58m-11.26-36.06a15.24 15.24 0 0 1 15.23-15.25H74a15.24 15.24 0 1 1-15.67 15.24Zm155.16 24.49l.05-35.32h63.26c3.28 0 23.07 3.77 23.07 18.62c0 12.29-15.19 16.7-27.68 16.7ZM399 306.71c-9.8 1.13-20.63-4.12-22-10.09c-5.78-32.49-15.39-39.4-30.57-51.4c18.86-11.95 38.46-29.64 38.46-53.26c0-25.52-17.49-41.59-29.4-49.48c-16.76-11-35.28-13.23-40.27-13.23h-198.9a187.5 187.5 0 0 1 104.89-59.19l23.47 24.6a13.82 13.82 0 0 0 19.6.44l26.26-25a187.51 187.51 0 0 1 128.37 91.43l-18 40.57a14 14 0 0 0 7.09 18.33l34.59 15.33a187 187 0 0 1 .4 32.54h-19.28c-1.91 0-2.69 1.27-2.69 3.13v8.82C421 301 409.31 305.58 399 306.71M240 60.21A15.24 15.24 0 0 1 255.21 45h.45A15.24 15.24 0 1 1 240 60.21M436.84 214a15.24 15.24 0 1 1 0-30.48h.44a15.24 15.24 0 0 1-.44 30.48" />
            </svg>
        </g>

        <!-- Fifth Icon -->
        <g transform="translate(120, 0)">
            <svg xmlns="http://www.w3.org/2000/svg" width="100px" height="100px" viewBox="0 0 24 24">
                <path fill="currentColor"
                    d="M12 6c-2.67 0-4.33 1.33-5 4c1-1.33 2.17-1.83 3.5-1.5c.76.19 1.31.74 1.91 1.35c.98 1 2.09 2.15 4.59 2.15c2.67 0 4.33-1.33 5-4c-1 1.33-2.17 1.83-3.5 1.5c-.76-.19-1.3-.74-1.91-1.35C15.61 7.15 14.5 6 12 6m-5 6c-2.67 0-4.33 1.33-5 4c1-1.33 2.17-1.83 3.5-1.5c.76.19 1.3.74 1.91 1.35C8.39 16.85 9.5 18 12 18c2.67 0 4.33-1.33 5-4c-1 1.33-2.17 1.83-3.5 1.5c-.76-.19-1.3-.74-1.91-1.35C10.61 13.15 9.5 12 7 12" />
            </svg>
        </g>

        <!-- Sixth Icon -->
        <g transform="translate(240, 0)">
            <svg xmlns="http://www.w3.org/2000/svg" width="100px" height="100px" viewBox="0 0 24 24">
                <path fill="currentColor"
                    d="M10.99 1.974c2.92-1.86 6.957-.992 9.001 1.934a6.27 6.27 0 0 1 1.072 4.74a5.9 5.9 0 0 1-.88 2.198c.64 1.221.855 2.62.61 3.977a5.88 5.88 0 0 1-2.657 3.94l-5.127 3.268c-2.92 1.86-6.957.993-9.002-1.933a6.27 6.27 0 0 1-1.07-4.741a5.9 5.9 0 0 1 .88-2.198a6.2 6.2 0 0 1-.611-3.977a5.88 5.88 0 0 1 2.658-3.94zM8.049 20.25c.782.29 1.633.332 2.44.123c.369-.099.72-.253 1.042-.458l5.128-3.267a3.54 3.54 0 0 0 1.598-2.37a3.77 3.77 0 0 0-.645-2.85a4.07 4.07 0 0 0-4.37-1.62c-.369.099-.72.253-1.042.458l-1.957 1.246a1.1 1.1 0 0 1-.314.138a1.227 1.227 0 0 1-1.5-.899a1.1 1.1 0 0 1-.01-.45a1.07 1.07 0 0 1 .48-.713l5.129-3.268a1.1 1.1 0 0 1 .314-.138a1.23 1.23 0 0 1 1.317.489c.157.222.23.492.207.762l-.018.19l.191.058a6.6 6.6 0 0 1 2.005 1.003l.263.192l.096-.295q.078-.235.123-.478a3.77 3.77 0 0 0-.644-2.85a4.07 4.07 0 0 0-4.371-1.621a3.7 3.7 0 0 0-1.042.458L7.34 7.357a3.54 3.54 0 0 0-1.6 2.37a3.77 3.77 0 0 0 .645 2.85a4.07 4.07 0 0 0 4.371 1.62c.369-.099.72-.253 1.042-.457l1.956-1.248q.148-.093.315-.137a1.23 1.23 0 0 1 1.5.899c.034.147.037.3.011.449a1.07 1.07 0 0 1-.482.713l-5.127 3.269a1.1 1.1 0 0 1-.314.137a1.23 1.23 0 0 1-1.317-.488a1.15 1.15 0 0 1-.207-.762l.017-.19l-.19-.058a6.6 6.6 0 0 1-2.005-1.003l-.263-.192l-.096.295a4 4 0 0 0-.123.478a3.77 3.77 0 0 0 .644 2.85a4.07 4.07 0 0 0 1.93 1.498" />
            </svg>
        </g>

        <!-- Seventh Icon -->
        <g transform="translate(360, 0)">
            <svg xmlns="http://www.w3.org/2000/svg" width="100px" height="100px" viewBox="0 0 32 32">
                <path fill="currentColor"
                    d="M15.188.807c-1.354 3.313-2.167 5.484-3.672 8.703c.922.979 2.057 2.12 3.896 3.406c-1.979-.818-3.328-1.635-4.339-2.484C9.146 14.458 6.125 20.182 0 31.192c4.818-2.781 8.547-4.495 12.026-5.151a9 9 0 0 1-.229-2.063l.005-.151c.078-3.089 1.682-5.458 3.583-5.297s3.38 2.792 3.307 5.88a9 9 0 0 1-.198 1.656c3.443.672 7.135 2.38 11.885 5.125c-.938-1.724-1.771-3.281-2.573-4.76c-1.255-.974-2.568-2.245-5.24-3.62c1.839.479 3.151 1.031 4.177 1.646C18.623 9.348 17.972 7.337 15.186.806zm15.343 27.672v-.828h-.313v-.115h.75v.115h-.313v.828zm.568 0v-.943h.188l.224.667q.032.094.042.141c.01-.031.031-.083.052-.151l.224-.656h.172v.943h-.12v-.792l-.276.792h-.115l-.271-.802v.802h-.12z" />
            </svg>
        </g>
    </g>
</svg>